<svg width="150" height="150" viewBox="0 0 150 150" fill="none" xmlns="http://www.w3.org/2000/svg">
<rect width="150" height="150" rx="51" fill="black" fill-opacity="0.01"/>
<path d="M42.8387 59.0778L49.3949 83.9177C50.2233 87.0565 53.5051 88.8139 56.5201 87.7333C68.6471 83.387 81.9774 83.4063 94.1167 87.717C97.1638 88.7991 100.504 87.0208 101.322 83.8469L107.712 59.0559C108.608 55.5805 107.249 51.9057 104.325 49.8867C86.7914 37.7775 63.7397 37.762 46.206 49.8712C43.2702 51.8987 41.919 55.5932 42.8387 59.0778Z" fill="white"/>
<path d="M50.1551 104.29C47.7916 105.437 44.9346 104.477 43.7715 102.146C42.6085 99.8154 43.5812 96.9978 45.9447 95.8508C54.2521 91.8195 64.2351 89.507 74.9034 89.5068C85.5725 89.5068 95.5581 91.8192 103.866 95.8508C106.229 96.9978 107.202 99.8154 106.039 102.146C104.876 104.477 102.019 105.437 99.6555 104.29C92.7383 100.933 84.2041 98.9147 74.9034 98.9147C65.6035 98.915 57.0721 100.933 50.1551 104.29Z" fill="white"/>
</svg>
